<svg width="24" height="24" viewBox="0 0 24 24" fill="none" xmlns="http://www.w3.org/2000/svg">
<path d="M3.42857 3C2.01857 3 0.857143 4.16143 0.857143 5.57143V11.3829C0.334286 11.856 0 12.5331 0 13.2857V21H4.28571V19.2857H19.7143V21H24V13.2857C24 12.5331 23.6657 11.856 23.1429 11.3829V5.57143C23.1429 4.16143 21.9814 3 20.5714 3H3.42857ZM3.42857 4.71429H20.5714C21.0471 4.71429 21.4286 5.09571 21.4286 5.57143V10.7143H19.7143V9.85714C19.7143 8.44714 18.5529 7.28571 17.1429 7.28571H13.7143C13.0569 7.28571 12.4569 7.54286 12 7.95429C11.5313 7.52655 10.9203 7.28827 10.2857 7.28571H6.85714C5.44714 7.28571 4.28571 8.44714 4.28571 9.85714V10.7143H2.57143V5.57143C2.57143 5.09571 2.95286 4.71429 3.42857 4.71429ZM6.85714 9H10.2857C10.7614 9 11.1429 9.38143 11.1429 9.85714V10.7143H6V9.85714C6 9.38143 6.38143 9 6.85714 9ZM13.7143 9H17.1429C17.6186 9 18 9.38143 18 9.85714V10.7143H12.8571V9.85714C12.8571 9.38143 13.2386 9 13.7143 9ZM2.57143 12.4286H21.4286C21.9043 12.4286 22.2857 12.81 22.2857 13.2857V19.2857H21.4286V17.5714H2.57143V19.2857H1.71429V13.2857C1.71429 12.81 2.09571 12.4286 2.57143 12.4286Z" fill="black"/>
</svg>
