<svg width="40" height="40" viewBox="0 0 40 40" fill="none" xmlns="http://www.w3.org/2000/svg">
<path fill-rule="evenodd" clip-rule="evenodd" d="M2.4978 20C2.4978 20.3315 2.62949 20.6495 2.86391 20.8839C3.09833 21.1183 3.41628 21.25 3.7478 21.25L33.2303 21.25L25.3628 29.115C25.2466 29.2312 25.1544 29.3692 25.0915 29.521C25.0286 29.6729 24.9962 29.8356 24.9962 30C24.9962 30.1644 25.0286 30.3271 25.0915 30.479C25.1544 30.6308 25.2466 30.7688 25.3628 30.885C25.479 31.0012 25.617 31.0934 25.7688 31.1563C25.9207 31.2192 26.0834 31.2516 26.2478 31.2516C26.4122 31.2516 26.5749 31.2192 26.7268 31.1563C26.8786 31.0934 27.0166 31.0012 27.1328 30.885L37.1328 20.885C37.2492 20.7689 37.3416 20.631 37.4046 20.4791C37.4676 20.3272 37.5 20.1644 37.5 20C37.5 19.8356 37.4676 19.6728 37.4046 19.5209C37.3416 19.3691 37.2492 19.2311 37.1328 19.115L27.1328 9.11501C27.0166 8.99879 26.8786 8.9066 26.7268 8.8437C26.5749 8.7808 26.4122 8.74843 26.2478 8.74843C26.0834 8.74843 25.9207 8.7808 25.7688 8.8437C25.617 8.9066 25.479 8.99879 25.3628 9.11501C25.2466 9.23123 25.1544 9.3692 25.0915 9.52105C25.0286 9.6729 24.9962 9.83565 24.9962 10C24.9962 10.1644 25.0286 10.3271 25.0915 10.479C25.1544 10.6308 25.2466 10.7688 25.3628 10.885L33.2303 18.75L3.7478 18.75C3.41627 18.75 3.09833 18.8817 2.86391 19.1161C2.62949 19.3505 2.4978 19.6685 2.4978 20Z" fill="black"/>
</svg>
